<svg width="22" height="22" viewBox="0 0 22 22" fill="none" xmlns="http://www.w3.org/2000/svg">
<path d="M15.93 0.344421H6.06904C2.71697 0.344421 -0.000488281 2.99422 -0.000488281 6.26284V15.8783C-0.000488281 19.1469 2.71697 21.7967 6.06904 21.7967H15.93C19.2821 21.7967 21.9995 19.1469 21.9995 15.8783V6.26284C21.9995 2.99422 19.2821 0.344421 15.93 0.344421ZM20.0469 15.8783C20.0469 18.0997 18.1918 19.8927 15.93 19.8927H6.06904C3.79093 19.8927 1.95217 18.0838 1.95217 15.8783V6.26284C1.95217 4.05732 3.8072 2.24847 6.06904 2.24847H15.93C18.2081 2.24847 20.0469 4.05732 20.0469 6.26284V15.8783Z" fill="#393939"/>
<path d="M10.9993 5.54877C7.87505 5.54877 5.32031 8.02403 5.32031 11.0705C5.32031 14.117 7.85877 16.6081 10.9993 16.6081C14.1236 16.6081 16.6783 14.1329 16.6783 11.0705C16.6783 8.02403 14.1236 5.54877 10.9993 5.54877ZM10.9993 14.7041C8.94901 14.7041 7.27298 13.0856 7.27298 11.0864C7.28925 9.07126 8.94901 7.45282 10.9993 7.45282C13.0496 7.45282 14.7256 9.07126 14.7256 11.0705C14.7256 13.0698 13.0496 14.7041 10.9993 14.7041Z" fill="#393939"/>
<path d="M16.9061 3.9303C16.5318 3.9303 16.1576 4.0731 15.8972 4.34284C15.6368 4.59672 15.4741 4.96166 15.4741 5.3266C15.4741 5.69154 15.6206 6.05649 15.8972 6.31036C16.1576 6.56423 16.5318 6.7229 16.9061 6.7229C17.2803 6.7229 17.6546 6.5801 17.915 6.31036C18.1753 6.05649 18.338 5.69154 18.338 5.3266C18.338 4.96166 18.1916 4.59672 17.915 4.34284C17.6546 4.0731 17.2966 3.9303 16.9061 3.9303Z" fill="#393939"/>
</svg>
