<svg width="23" height="22" viewBox="0 0 23 22" fill="none" xmlns="http://www.w3.org/2000/svg">
<g clip-path="url(#clip0_92_24)">
<path d="M5.21545 7.3407H0.275391V21.8215H5.21545V7.3407Z" fill="#393939"/>
<path d="M21.4372 8.66325C20.4033 7.56486 19.0246 7.00446 17.3243 7.00446C16.704 7.00446 16.1295 7.0717 15.6011 7.22862C15.0956 7.38553 14.659 7.58728 14.2914 7.85627C13.9467 8.12526 13.648 8.37184 13.4412 8.61842C13.2344 8.84258 13.0506 9.08916 12.8668 9.38057V7.31828H7.94971L7.97268 8.01318C7.97268 8.48392 7.99566 9.91856 7.99566 12.3395C7.99566 14.7605 7.99566 17.8987 7.97268 21.7991H12.8898V13.7293C12.8898 13.2362 12.9357 12.8327 13.0506 12.5413C13.2574 12.0481 13.5791 11.6222 13.9927 11.2859C14.4063 10.9497 14.9347 10.7928 15.5781 10.7928C16.4282 10.7928 17.0716 11.0842 17.4622 11.667C17.8758 12.2498 18.0596 13.0568 18.0596 14.0655V21.7991H22.9767V13.5051C22.9997 11.3756 22.4942 9.76164 21.4372 8.66325Z" fill="#393939"/>
<path d="M2.77973 0.369324C1.95256 0.369324 1.28623 0.615902 0.780731 1.08664C0.252259 1.55738 -0.000488281 2.1402 -0.000488281 2.85752C-0.000488281 3.57484 0.252259 4.15766 0.757753 4.65081C1.26325 5.12155 1.9066 5.36813 2.73378 5.36813H2.75675C3.6069 5.36813 4.27324 5.12155 4.77873 4.65081C5.28423 4.18007 5.53697 3.57484 5.53697 2.85752C5.53697 2.1402 5.26125 1.53497 4.77873 1.06423C4.27324 0.615902 3.6069 0.369324 2.77973 0.369324Z" fill="#393939"/>
</g>
<defs>
<clipPath id="clip0_92_24">
<rect width="23" height="21.4523" fill="white" transform="translate(-0.000488281 0.369324)"/>
</clipPath>
</defs>
</svg>
