<svg width="32" height="32" viewBox="0 0 32 32" fill="none" xmlns="http://www.w3.org/2000/svg">
<path d="M19.8172 30.9471L19.8218 20.6474C19.8782 20.2542 20.1974 19.8988 20.6103 19.8243L30.9316 19.8358C31.3257 19.8924 31.6448 19.5369 31.7201 19.0126L31.7415 13.2636C31.7979 12.8704 31.4415 12.5517 30.9161 12.4762L20.5947 12.4647C20.2007 12.4081 19.8443 12.0893 19.7694 11.6773L19.7739 1.37761C19.8304 0.984415 19.474 0.665664 18.9485 0.590174L13.1874 0.565064C12.7933 0.508447 12.4741 0.863895 12.3988 1.38816L12.3943 11.6878C12.3379 12.081 12.0187 12.4365 11.6058 12.5109L1.28443 12.4995C0.890369 12.4428 0.571189 12.7983 0.495893 13.3226L0.474558 19.0716C0.418086 19.4648 0.774517 19.7836 1.29994 19.8591L11.6213 19.8705C12.0154 19.9271 12.3718 20.2459 12.4467 20.6579L12.4421 30.9576C12.3856 31.3508 12.7421 31.6695 13.2675 31.745L19.0287 31.7702C19.4415 31.6957 19.7607 31.3403 19.8172 30.9471Z" fill="#FDD08D"/>
</svg>
