<svg width="25" height="20" viewBox="0 0 25 20" fill="none" xmlns="http://www.w3.org/2000/svg">
<g clip-path="url(#clip0_92_29)">
<path d="M24.9985 2.63451C24.0248 3.03204 23.0267 3.28926 22.053 3.40618C23.1728 2.77482 23.903 1.86285 24.3169 0.69366C23.2945 1.25487 22.1991 1.65239 21.0549 1.86285C20.0325 0.833962 18.7911 0.319519 17.3062 0.319519C15.8943 0.319519 14.6771 0.810578 13.6791 1.76931C12.681 2.72805 12.1698 3.89724 12.1698 5.2535C12.1698 5.62764 12.2185 6.00178 12.2916 6.37592C10.1981 6.28238 8.22631 5.76794 6.40061 4.85597C4.5749 3.94401 3.01696 2.72805 1.7268 1.23149C1.26429 2.00315 1.02086 2.82158 1.02086 3.71017C1.02086 4.55198 1.2156 5.34703 1.62943 6.04855C2.04325 6.77344 2.60314 7.35804 3.28474 7.80233C2.45708 7.77895 1.67811 7.56849 0.972174 7.17097V7.24112C0.972174 8.43369 1.36166 9.46258 2.14063 10.3745C2.91959 11.2631 3.8933 11.8477 5.0861 12.0816C4.64793 12.1985 4.18542 12.2452 3.74725 12.2452C3.45513 12.2452 3.13868 12.2219 2.77354 12.1751C3.08999 13.1572 3.69856 13.9756 4.5749 14.607C5.45124 15.2384 6.44929 15.5657 7.56906 15.5891C5.71901 16.9922 3.57685 17.6937 1.2156 17.6937C0.753089 17.6937 0.339262 17.6703 -0.0258789 17.6235C2.35971 19.0967 4.98873 19.8216 7.83683 19.8216C9.66254 19.8216 11.3665 19.541 12.9731 19.0032C14.5798 18.442 15.943 17.7171 17.0627 16.7817C18.1825 15.8464 19.1805 14.7707 19.9839 13.5781C20.8115 12.3622 21.4201 11.0994 21.8096 9.78995C22.1991 8.48046 22.4181 7.14758 22.4181 5.83809C22.4181 5.55749 22.4181 5.34703 22.3938 5.20673C23.4405 4.48183 24.2925 3.64002 24.9985 2.63451Z" fill="#393939"/>
</g>
<defs>
<clipPath id="clip0_92_29">
<rect width="25" height="19.5021" fill="white" transform="translate(-0.000488281 0.319519)"/>
</clipPath>
</defs>
</svg>
