<svg width="29" height="20" viewBox="0 0 29 20" fill="none" xmlns="http://www.w3.org/2000/svg">
<g clip-path="url(#clip0_92_21)">
<path d="M27.9851 7.77894C27.9851 7.24112 27.9372 6.53961 27.8412 5.69779C27.7693 4.85597 27.6494 4.10769 27.5055 3.45295C27.3376 2.70466 26.9779 2.09669 26.4264 1.58224C25.8748 1.0678 25.2273 0.787195 24.4839 0.69366C22.1818 0.436438 18.6806 0.319519 14.0043 0.319519C9.32805 0.319519 5.82685 0.436438 3.52469 0.69366C2.78129 0.787195 2.1338 1.0678 1.58225 1.58224C1.03069 2.09669 0.670974 2.70466 0.503109 3.45295C0.335243 4.10769 0.23932 4.85597 0.143397 5.69779C0.0714542 6.53961 0.0234925 7.24112 -0.000488281 7.77894C-0.000488281 8.34016 -0.000488281 9.08844 -0.000488281 10.0706C-0.000488281 11.0527 -0.000488281 11.801 0.0234925 12.3622C0.0234925 12.9 0.0714542 13.6015 0.167377 14.4433C0.215339 15.2851 0.335243 16.0334 0.479128 16.6882C0.646994 17.4364 1.00671 18.0444 1.55826 18.5589C2.10982 19.0733 2.75731 19.3539 3.50071 19.4475C5.80287 19.7047 9.30407 19.8216 13.9803 19.8216C18.6566 19.8216 22.1578 19.7047 24.4599 19.4475C25.2033 19.3773 25.8508 19.0733 26.4024 18.5589C26.9539 18.0444 27.3137 17.4364 27.4815 16.6882C27.6494 16.0334 27.7453 15.2851 27.8412 14.4433C27.9132 13.6015 27.9611 12.9 27.9851 12.3622C27.9851 11.8243 28.0091 11.0527 28.0091 10.0706C28.0091 9.08844 28.0091 8.34016 27.9851 7.77894ZM19.5439 10.889L11.5343 15.7762C11.3904 15.8697 11.2225 15.9399 11.0067 15.9399C10.8388 15.9399 10.695 15.8931 10.5271 15.823C10.1914 15.6359 9.99951 15.3553 9.99951 14.9578V5.20673C9.99951 4.80921 10.1674 4.5286 10.5271 4.34153C10.8868 4.15446 11.2225 4.17784 11.5343 4.36491L15.5391 6.80852L19.5439 9.25212C19.8556 9.41581 20.0235 9.69642 20.0235 10.0706C19.9995 10.4447 19.8556 10.7253 19.5439 10.889Z" fill="#393939"/>
</g>
<defs>
<clipPath id="clip0_92_21">
<rect width="28.0096" height="19.5021" fill="white" transform="translate(-0.000488281 0.319519)"/>
</clipPath>
</defs>
</svg>
